<svg xmlns="http://www.w3.org/2000/svg" viewBox="-3925 270 551 183.889">
  <defs>
    <style>
      .cls-1 {
        fill: rgb(58, 170, 53);
      }
    </style>
  </defs>
  <g id="Group_599" data-name="Group 599" transform="translate(-3925 270)">
    <path id="Path_36" data-name="Path 36" class="cls-1" d="M22.653,102.408H0V7.8H22.653V21.124C28.649,11.13,37.977,5.8,49.97,5.8c19.988,0,35.312,13.325,35.312,39.976v56.632H61.963V50.44c0-15.99-7.329-24.652-19.988-24.652-11.993,0-19.988,8.661-19.988,24.652v51.969Z" transform="translate(0 32.843)"/>
    <path id="Path_37" data-name="Path 37" class="cls-1" d="M108.477,63H37.853C40.518,76.99,49.179,84.985,63.171,84.985c9.994,0,15.99-4,18.655-10.66h24.652c-5.33,19.322-21.987,29.982-44.64,29.982C35.188,104.307,15.2,84.319,15.2,55c0-28.649,19.988-49.3,46.638-49.3S108.477,25.688,108.477,55Q109.476,60,108.477,63ZM37.853,47.008H86.49C83.825,33.683,75.164,26.354,61.838,26.354S40.518,33.683,37.853,47.008Z" transform="translate(86.072 32.277)"/>
    <path id="Path_38" data-name="Path 38" class="cls-1" d="M46.4,100.709V6.1H69.053v94.609Z" transform="translate(262.746 34.542)"/>
    <path id="Path_39" data-name="Path 39" class="cls-1" d="M100.937,151.045c-25.318,0-43.973-16.657-47.3-41.308H76.285c2,12.659,11.327,20.654,24.652,20.654,15.324,0,24.652-11.993,24.652-27.983V90.415a35.024,35.024,0,0,1-27.983,13.992c-25.984,0-45.306-19.988-45.306-49.3,0-28.649,19.322-49.3,45.306-49.3a35.024,35.024,0,0,1,27.983,13.992V7.8h22.653v94.609C147.576,131.058,126.922,151.045,100.937,151.045ZM124.923,55.1c0-16.657-10.66-27.983-25.318-27.983S74.287,38.447,74.287,55.1,84.947,83.087,99.6,83.087,124.923,71.76,124.923,55.1Z" transform="translate(296.156 32.843)"/>
    <path id="Path_40" data-name="Path 40" class="cls-1" d="M92.553,102.408H69.9V7.8H92.553V21.124C98.549,11.13,107.877,5.8,119.87,5.8c19.988,0,35.312,13.325,35.312,39.976v56.632H132.529V50.44c0-15.99-7.329-24.652-19.988-24.652-11.993,0-19.988,8.661-19.988,24.652Z" transform="translate(395.818 32.843)"/>
    <path id="Path_41" data-name="Path 41" class="cls-1" d="M67.377,14.6V52.577H29.4Z" transform="translate(166.481 82.674)"/>
    <path id="Path_42" data-name="Path 42" class="cls-1" d="M39.2,43.411V6.1H76.511Z" transform="translate(221.975 34.542)"/>
    <path id="Path_43" data-name="Path 43" class="cls-1" d="M131.338,100.709h0L60.048,6.1H29.4l71.956,94.609Z" transform="translate(166.481 34.542)"/>
    <rect id="Rectangle_16" data-name="Rectangle 16" class="cls-1" width="22.653" height="22.653" transform="translate(309.146)"/>
  </g>
</svg>